<svg xmlns="http://www.w3.org/2000/svg" viewBox="0 0 800 900" role="img" aria-labelledby="title desc">
  <title id="title">Ona pendant light concept illustration</title><desc id="desc">A pleated ivory pendant lamp with a muted brass detail.</desc>
  <defs><linearGradient id="wall" x2="0" y2="1"><stop stop-color="#f1ede4"/><stop offset="1" stop-color="#d8d1c2"/></linearGradient><linearGradient id="shade" x2="1" y2="1"><stop stop-color="#fffdf6"/><stop offset="1" stop-color="#cfc3ab"/></linearGradient><radialGradient id="glow"><stop stop-color="#f5dfad" stop-opacity=".68"/><stop offset="1" stop-color="#f5dfad" stop-opacity="0"/></radialGradient></defs>
  <rect width="800" height="900" fill="url(#wall)"/><circle cx="400" cy="520" r="320" fill="url(#glow)"/><path d="M400 0v233" stroke="#615746" stroke-width="5"/><path d="M386 227h28v27h-28z" fill="#9e8257"/><path d="M254 462c6-130 50-212 146-212s140 82 146 212c-86 66-206 66-292 0z" fill="url(#shade)"/><path d="M254 462c32 23 60 35 84 43m208-43c-32 23-60 35-84 43M340 260c-3 100 2 173 14 243m46-253v258m46-248c3 100-2 173-14 243" fill="none" stroke="#c3b59e" stroke-width="3" opacity=".75"/><ellipse cx="400" cy="462" rx="146" ry="23" fill="#d1c3aa"/><path d="M325 494c21 84 46 133 75 149 29-16 54-65 75-149" fill="#f2dfb5" opacity=".12"/>
  <text x="400" y="858" text-anchor="middle" fill="#6d705f" font-family="Arial,sans-serif" font-size="18" letter-spacing="5">LIGHTING CONCEPT</text>
</svg>
